Coordinates
version=1
nRows=16
nColumns=36
inDegrees=yes

Units are S.I. units (second, meters, Newtons, ...)
If the header above contains a line with 'inDegrees', this indicates whether rotational values are in degrees (yes) or radians (no).

endheader
time	pelvis_tilt	pelvis_list	pelvis_rotation	pelvis_tx	pelvis_ty	pelvis_tz	hip_flexion_r	hip_adduction_r	hip_rotation_r	knee_angle_r	knee_angle_r_beta	ankle_angle_r	subtalar_angle_r	mtp_angle_r	hip_flexion_l	hip_adduction_l	hip_rotation_l	knee_angle_l	knee_angle_l_beta	ankle_angle_l	subtalar_angle_l	mtp_angle_l	lumbar_extension	lumbar_bending	lumbar_rotation	arm_flex_r	arm_add_r	arm_rot_r	elbow_flex_r	pro_sup_r	arm_flex_l	arm_add_l	arm_rot_l	elbow_flex_l	pro_sup_l
      0.99000000	     -8.68707072	      0.85480857	      4.83115112	     -0.72437551	      1.21195463	     -0.59487036	     15.12036677	     -1.57500365	     -3.28849093	     48.34359356	      0.84375488	    -18.73931084	    -20.57399369	     -5.78152195	     16.06903104	     -1.96374652	     -3.78261647	     45.88802348	      0.80089710	     -6.77268331	     -8.63278913	     -5.78152195	     -6.88804350	     -4.22610180	     -1.76165423	     17.64354592	    -45.17703775	    -12.91602045	    138.30891755	    108.18036189	     64.47444129	    -41.09337209	     39.37514150	    109.46912898	    102.54806824
      1.00000000	     -8.89625609	      0.65913072	      4.65739570	     -0.71445334	      1.21442789	     -0.59475759	     16.41214927	     -1.57266086	     -3.63979283	     49.25535628	      0.85966814	    -16.24637981	    -22.71821229	     -5.79683298	     16.72435040	     -2.15682419	     -3.39194373	     45.21727969	      0.78919041	     -6.99135646	     -8.66549779	     -5.79683298	     -6.73377205	     -4.06117927	     -1.71053958	     16.49122125	    -45.64737075	    -13.02631675	    138.71420464	    108.21135715	     64.13131344	    -42.21039083	     39.65372927	    110.70302735	    102.75327324
      1.01000000	     -9.35382654	      0.57628979	      4.53127693	     -0.70515868	      1.21552594	     -0.59473512	     18.30945428	     -1.73297404	     -3.82640012	     50.66250843	      0.88422758	    -15.39391796	    -25.01677029	     -5.87700185	     17.89717591	     -2.15671605	     -2.90230082	     44.92677233	      0.78412010	     -7.59968274	     -9.36190417	     -5.87700185	     -6.43116777	     -4.09367150	     -1.43890971	     14.66371457	    -45.70995093	    -14.07801697	    139.17868756	    108.24795670	     63.84373417	    -42.69892840	     40.05849213	    111.37082301	    103.02479287
      1.02000000	     -9.48030849	      0.55783977	      4.42121411	     -0.69613153	      1.21614089	     -0.59479695	     19.87630213	     -1.91125960	     -3.91372222	     51.96309773	      0.90692714	    -16.15270103	    -27.86918736	     -5.97968275	     18.83580771	     -2.11145096	     -2.31689849	     44.88456330	      0.78338341	     -7.40618291	     -9.28465357	     -5.97968275	     -6.64388106	     -4.13241138	     -1.11465135	     12.96690181	    -45.69753845	    -14.94796429	    139.40742301	    108.38035908	     63.44362290	    -42.89527398	     40.34619344	    111.71654084	    103.21128975
      1.03000000	     -9.41322634	      0.65784950	      4.34182774	     -0.68734319	      1.21600394	     -0.59494458	     21.29856791	     -2.28688009	     -4.05658659	     53.30278686	      0.93030913	    -15.97504116	    -29.14329358	     -5.99637410	     19.66832967	     -1.92480179	     -1.67694338	     45.00836734	      0.78554420	     -7.10563340	     -9.11651002	     -5.99637410	     -7.17043314	     -4.24882755	     -1.08251909	     11.97515273	    -45.51609567	    -14.87351875	    139.17488469	    108.41282743	     62.73843583	    -43.28465504	     40.41105009	    112.09588043	    103.25743173
      1.04000000	     -9.30132764	      0.66472449	      4.25694319	     -0.67876301	      1.21508758	     -0.59501523	     22.63658371	     -2.46529665	     -4.00724101	     54.24520244	      0.94675739	    -15.99607782	    -30.23936817	     -6.01609106	     20.55496163	     -1.83589426	     -0.99946569	     45.23876653	      0.78956543	     -6.74232960	     -8.66076564	     -6.01609106	     -7.80407783	     -4.24749297	     -1.02470620	     11.09375598	    -45.12252544	    -14.70854433	    138.76323227	    108.44937311	     61.79581541	    -43.49041306	     40.41757971	    112.14016233	    103.22964476
      1.05000000	     -8.93904681	      0.56543208	      4.13029771	     -0.67037236	      1.21364594	     -0.59504584	     23.58509502	     -2.39757462	     -3.73213366	     54.60083354	      0.95296432	    -15.57015050	    -30.75139316	     -6.03039125	     21.21619404	     -1.88716371	     -0.32774830	     45.46718452	      0.79355207	     -6.51757344	     -8.12699941	     -6.03039125	     -8.79642841	     -4.09965834	     -0.88347804	     10.28783770	    -44.84284707	    -14.29386859	    138.12458297	    108.46882927	     60.80355895	    -43.50150393	     40.43417135	    111.90366257	    103.16941759
      1.06000000	     -8.62802135	      0.39025996	      3.96507143	     -0.66212611	      1.21116577	     -0.59493175	     24.47621549	     -2.13437794	     -3.25675820	     54.41143036	      0.94965861	    -14.20092036	    -30.23149386	     -6.08478116	     21.98557218	     -2.11614634	      0.13129020	     45.72779069	      0.79810051	     -5.57614898	     -6.61803466	     -6.08478116	     -9.75836816	     -3.84971215	     -0.84412746	      9.80839910	    -44.55314675	    -13.41418213	    137.35501088	    108.61984940	     59.33974882	    -43.47972204	     39.92689119	    111.50962751	    103.02496830
      1.07000000	     -8.22139723	      0.21210160	      3.85752723	     -0.65400977	      1.20795752	     -0.59482924	     25.09571741	     -1.80085276	     -2.65996066	     53.59350298	      0.93538308	    -13.12921286	    -29.79733638	     -6.10319329	     22.62039250	     -2.28553404	      0.68403304	     45.73151546	      0.79816552	     -5.34995316	     -6.15154041	     -6.10319329	    -10.89684516	     -3.64423965	     -0.72610034	      9.18533598	    -44.25335559	    -12.71382170	    136.38853272	    108.58620680	     58.24745142	    -43.32400732	     40.04994098	    110.81576393	    102.91866684
      1.08000000	     -7.82729849	      0.03480167	      3.81051913	     -0.64592166	      1.20369686	     -0.59500529	     25.68830028	     -1.61624903	     -2.20256324	     52.52062943	      0.91665791	    -10.30376514	    -26.88656409	     -6.18376388	     23.27440035	     -2.50635365	      1.09863749	     45.64486822	      0.79665324	     -4.15108626	     -4.56209675	     -6.18376388	    -12.05966090	     -3.37603560	     -0.93209444	      9.19876302	    -43.93994245	    -11.33827214	    135.27389647	    108.82018789	     56.63461681	    -43.39623249	     39.57560778	    110.22106369	    102.83923297
      1.09000000	     -7.43969965	     -0.14377369	      3.81505095	     -0.63777137	      1.19860474	     -0.59537783	     26.15220942	     -1.42669842	     -1.68365404	     50.97077285	      0.88960781	     -8.16057702	    -24.31556918	     -6.23848402	     23.84382985	     -2.70271855	      1.50738138	     45.16866936	      0.78834200	     -3.26880986	     -3.52022727	     -6.23848402	    -13.24819750	     -3.10416878	     -0.95151923	      8.74988944	    -43.69968245	    -10.39649885	    134.31456469	    108.90804062	     55.18954137	    -43.09359861	     39.39011744	    109.36592319	    102.66864965
      1.10000000	     -7.15480876	     -0.28493148	      3.83895724	     -0.62954932	      1.19244688	     -0.59565774	     26.58575560	     -1.27356609	     -1.11467812	     49.01774045	      0.85552096	     -5.78491423	    -21.30031054	     -6.29621763	     24.41639154	     -2.85818648	      1.90071278	     44.30235441	      0.77322195	     -2.49249622	     -2.54906983	     -6.29621763	    -14.34546284	     -2.90694362	     -0.97818048	      8.12379536	    -43.47289192	     -9.49360734	    133.39923098	    108.94526844	     53.77177187	    -42.81283464	     39.27321082	    108.53363387	    102.46291138
      1.11000000	     -7.08717455	     -0.40977956	      3.88734853	     -0.62120984	      1.18514539	     -0.59586736	     27.09303471	     -1.07154006	     -0.38668794	     46.59651638	      0.81326263	     -5.04725745	    -20.18965442	     -6.30861968	     25.07931286	     -2.92153667	      2.36606619	     42.96501488	      0.74988097	     -2.19056804	     -2.19994242	     -6.30861968	    -15.19976079	     -2.75497643	     -0.93827888	      7.13525035	    -43.28845335	     -8.74769751	    132.69450572	    108.87653525	     52.48280104	    -42.58114594	     39.63969238	    107.80234633	    102.33921942
      1.12000000	     -6.91909531	     -0.48532054	      4.00689942	     -0.61268881	      1.17694707	     -0.59642254	     27.37787834	     -1.17185715	     -0.00070321	     44.05070028	      0.76882976	     -1.95257518	    -15.91627934	     -6.36282815	     25.57543388	     -2.96376586	      2.64207655	     41.44332571	      0.72332249	     -1.35021097	     -0.98571245	     -6.36282815	    -16.16716864	     -2.56554003	     -1.16223555	      6.52490993	    -43.36044148	     -7.79070087	    132.11640473	    108.92587549	     50.78439148	    -42.48948064	     39.30217306	    107.28183459	    102.13872404
      1.13000000	     -6.96919535	     -0.59433670	      4.08786984	     -0.60409490	      1.16758980	     -0.59690848	     27.76234749	     -1.11424417	      0.72703515	     41.19213975	      0.71893846	     -0.57209849	    -13.74974212	     -6.40182499	     26.21801845	     -3.00980652	      2.88030687	     39.62424773	      0.69157359	     -1.11775828	     -0.48951844	     -6.40182499	    -16.84707846	     -2.38084682	     -1.32556576	      5.76096953	    -43.30442380	     -7.02506058	    131.65779248	    108.94230942	     49.13120347	    -42.59164110	     39.35416162	    106.98705710	    102.00094967
      1.14000000	     -7.33179408	     -0.59850091	      4.19643165	     -0.59543647	      1.15674348	     -0.59746266	     28.43562676	     -1.19223393	      1.52983757	     38.33103637	      0.66900279	      0.01906436	    -12.92646958	     -6.40948254	     27.17568305	     -2.92019960	      2.98122132	     37.71385629	      0.65823097	     -0.94617778	     -0.18337306	     -6.40948254	    -17.14775112	     -2.34344342	     -1.44149739	      4.55110977	    -43.09900035	     -6.50100149	    131.49384443	    108.88955901	     47.64013816	    -42.88876655	     39.93017779	    106.86515228	    101.95874282
